<svg xmlns="http://www.w3.org/2000/svg" version="1.1" xmlns:xlink="http://www.w3.org/1999/xlink" xmlns:svgjs="http://svgjs.dev/svgjs" width="1000" height="1000" viewBox="0 0 1000 1000"><rect width="1000" height="1000" fill="#ffffff"></rect><g transform="matrix(0.7,0,0,0.7,149.57595939572934,274.8354289120774)"><svg viewBox="0 0 396 255" data-background-color="#ffffff" preserveAspectRatio="xMidYMid meet" height="643" width="1000" xmlns="http://www.w3.org/2000/svg" xmlns:xlink="http://www.w3.org/1999/xlink"><g id="tight-bounds" transform="matrix(1,0,0,1,0.24011417244122413,0.06490919222457592)"><svg viewBox="0 0 395.52 254.87018161555085" height="254.87018161555085" width="395.52"><g><svg viewBox="0 0 395.52 254.87018161555085" height="254.87018161555085" width="395.52"><g transform="matrix(1,0,0,1,0,129.95039755762178)"><svg viewBox="0 0 395.52 124.91978405792906" height="124.91978405792906" width="395.52"><g><svg viewBox="0 0 395.52 124.91978405792906" height="124.91978405792906" width="395.52"><g><svg viewBox="0 0 395.52 82.3332371366969" height="82.3332371366969" width="395.52"><g transform="matrix(1,0,0,1,0,0)"><svg width="395.52" viewBox="0.014130000000000642 -19.462870000000002 225.17517999999998 46.87350892027822" height="82.3332371366969" data-palette-color="#0080ff"><path d="M11.876 16.263c-2.507-0.551-4.846-1.475-7.019-2.771-2.167-1.289-3.782-2.701-4.843-4.238v0l2.586-3.333c1.018 1.425 2.444 2.715 4.279 3.869 1.829 1.153 3.791 1.959 5.888 2.42v0c2.767 0.608 4.938 0.594 6.511-0.044 1.58-0.636 2.542-1.735 2.885-3.297v0c0.252-1.146 0.081-2.156-0.512-3.031-0.591-0.881-1.395-1.634-2.411-2.26-1.009-0.625-2.465-1.395-4.365-2.311v0c-2.38-1.158-4.275-2.209-5.686-3.154-1.412-0.938-2.526-2.156-3.344-3.652-0.824-1.498-1.002-3.316-0.532-5.452v0c0.391-1.778 1.212-3.28 2.464-4.506 1.259-1.225 2.937-2.058 5.034-2.498 2.097-0.44 4.558-0.35 7.384 0.272v0c1.973 0.434 3.857 1.117 5.651 2.05 1.803 0.929 3.283 2.018 4.442 3.27v0l-2.421 3.471c-1.204-1.2-2.55-2.202-4.039-3.007-1.487-0.811-2.996-1.385-4.526-1.721v0c-2.702-0.594-4.835-0.547-6.399 0.139-1.572 0.692-2.529 1.816-2.871 3.373v0c-0.252 1.146-0.076 2.161 0.529 3.044 0.611 0.885 1.436 1.65 2.475 2.295 1.039 0.645 2.48 1.402 4.323 2.271v0c2.38 1.158 4.269 2.208 5.666 3.149 1.391 0.94 2.5 2.15 3.329 3.629 0.821 1.484 1.001 3.274 0.54 5.371v0c-0.385 1.752-1.212 3.246-2.48 4.483-1.275 1.235-2.975 2.063-5.102 2.482-2.125 0.414-4.604 0.309-7.436-0.313zM56.743 23.579l-10.67-16.977-7.14 5.342-1.322 8.741-4.825-0.73 5.114-33.806 4.825 0.73-2.857 18.885 21.218-16.107 5.508 0.833-16.746 13.022 12.541 20.921zM95.473-7.422l-15.336 21.205-0.951 11.781-4.824-0.389 0.959-11.881-11.744-23.291 5.213 0.421 9.455 18.842 12.404-17.078zM112.257 27.406c-3.419-0.066-6.491-0.883-9.214-2.449-2.723-1.566-4.839-3.691-6.348-6.374-1.515-2.683-2.24-5.688-2.175-9.014v0c0.064-3.319 0.906-6.29 2.523-8.913 1.611-2.623 3.818-4.663 6.62-6.123 2.796-1.466 5.903-2.166 9.323-2.099v0c2.666 0.052 5.1 0.549 7.302 1.492 2.196 0.936 4.056 2.299 5.582 4.089v0l-3.229 3.018c-2.52-2.756-5.703-4.171-9.55-4.246v0c-2.54-0.049-4.843 0.476-6.912 1.576-2.075 1.1-3.712 2.642-4.91 4.625-1.192 1.977-1.812 4.202-1.86 6.676v0c-0.048 2.48 0.485 4.73 1.599 6.752 1.121 2.022 2.697 3.623 4.728 4.803 2.024 1.179 4.306 1.794 6.845 1.843v0c3.813 0.074 7.049-1.23 9.708-3.913v0l3.11 3.141c-1.594 1.729-3.516 3.026-5.767 3.889-2.251 0.87-4.709 1.279-7.375 1.227zM155.922-8.534l4.883-0.252 1.762 34.145-4.884 0.251-0.785-15.219-19.614 1.011 0.785 15.22-4.873 0.252-1.762-34.145 4.874-0.251 0.757 14.68 19.614-1.012zM199.169 20.292l-4.915-7.943-18.003 2.534-2.531 8.991-4.981 0.701 10.573-36.015 4.783-0.674 20.154 31.69zM177.399 10.773l14.616-2.057-9.642-15.558zM214.977 17.356l-6.011-29.331-11.481 2.353-0.853-4.163 27.704-5.678 0.853 4.164-11.481 2.353 6.011 29.33z" opacity="1" transform="matrix(1,0,0,1,0,0)" fill="#000000" class="undefined-text-0" data-fill-palette-color="primary" id="text-0"></path></svg></g></svg></g><g transform="matrix(1,0,0,1,69.21599999999998,107.48630463516048)"><svg viewBox="0 0 257.088 17.433479422768578" height="17.433479422768578" width="257.088"><g transform="matrix(1,0,0,1,0,0)"><svg width="257.088" viewBox="2.3 -39.85 748.32 50.75" height="17.433479422768578" data-palette-color="#0080ff"><path d="M34.1-34.55L36.8 0 30.35 0 29.45-14.45Q29-22.2 29-26.75L29-26.75 29-28.55 22.7-3.75 16.45-3.75 9.75-28.6Q9.85-25.3 9.85-23.6L9.85-23.6Q9.85-19.05 9.55-14.25L9.55-14.25 8.7 0 2.3 0 5.05-34.55 13.55-34.55 19.7-10.35 25.5-34.55 34.1-34.55ZM53.75-27.2Q59.6-27.2 62.87-23.48 66.15-19.75 66.15-13.25L66.15-13.25Q66.15-9.1 64.65-5.93 63.15-2.75 60.35-1 57.55 0.75 53.7 0.75L53.7 0.75Q47.85 0.75 44.55-2.98 41.25-6.7 41.25-13.25L41.25-13.25Q41.25-17.4 42.75-20.55 44.25-23.7 47.07-25.45 49.9-27.2 53.75-27.2L53.75-27.2ZM53.75-22.35Q48-22.35 48-13.25L48-13.25Q48-8.55 49.42-6.33 50.85-4.1 53.7-4.1L53.7-4.1Q56.55-4.1 57.97-6.35 59.4-8.6 59.4-13.25L59.4-13.25Q59.4-17.9 57.97-20.13 56.55-22.35 53.75-22.35L53.75-22.35ZM86.8-26.45L93.4-26.45 84.8 0 77.15 0 68.4-26.45 75.35-26.45 81-5.15 86.8-26.45ZM119.04-13.85Q119.04-13.35 118.89-11.25L118.89-11.25 102.29-11.25Q102.59-7.4 104.29-5.75 105.99-4.1 108.79-4.1L108.79-4.1Q110.54-4.1 112.09-4.67 113.64-5.25 115.39-6.45L115.39-6.45 118.04-2.8Q113.64 0.75 108.24 0.75L108.24 0.75Q102.19 0.75 98.92-2.95 95.64-6.65 95.64-13.05L95.64-13.05Q95.64-17.1 97.04-20.33 98.44-23.55 101.09-25.38 103.74-27.2 107.39-27.2L107.39-27.2Q112.94-27.2 115.99-23.68 119.04-20.15 119.04-13.85L119.04-13.85ZM112.69-15.4L112.69-15.7Q112.69-22.65 107.54-22.65L107.54-22.65Q105.19-22.65 103.87-20.93 102.54-19.2 102.29-15.4L102.29-15.4 112.69-15.4ZM143.54 0.75Q140.49 0.75 138.76-1.03 137.04-2.8 137.04-6.05L137.04-6.05 137.04-37.05 143.44-37.75 143.44-6.25Q143.44-4.4 144.94-4.4L144.94-4.4Q145.69-4.4 146.44-4.65L146.44-4.65 147.79-0.15Q145.79 0.75 143.54 0.75L143.54 0.75ZM152.04-26.45L158.44-26.45 158.44 0 152.04 0 152.04-26.45ZM155.19-39.85Q156.99-39.85 158.11-38.73 159.24-37.6 159.24-35.95L159.24-35.95Q159.24-34.3 158.11-33.2 156.99-32.1 155.19-32.1L155.19-32.1Q153.44-32.1 152.31-33.2 151.19-34.3 151.19-35.95L151.19-35.95Q151.19-37.6 152.31-38.73 153.44-39.85 155.19-39.85L155.19-39.85ZM187.53-30.15L189.13-25.05Q186.58-24.15 181.48-24.15L181.48-24.15Q183.93-23.05 185.11-21.43 186.28-19.8 186.28-17.35L186.28-17.35Q186.28-14.75 185.01-12.75 183.73-10.75 181.31-9.6 178.88-8.45 175.63-8.45L175.63-8.45Q173.83-8.45 172.48-8.85L172.48-8.85Q171.38-8.1 171.38-6.9L171.38-6.9Q171.38-5.05 174.58-5.05L174.58-5.05 178.63-5.05Q181.53-5.05 183.71-4.1 185.88-3.15 187.08-1.43 188.28 0.3 188.28 2.45L188.28 2.45Q188.28 6.45 184.88 8.68 181.48 10.9 175.08 10.9L175.08 10.9Q170.48 10.9 167.86 9.95 165.23 9 164.13 7.2 163.03 5.4 163.03 2.6L163.03 2.6 168.78 2.6Q168.78 4 169.31 4.8 169.83 5.6 171.21 6 172.58 6.4 175.18 6.4L175.18 6.4Q178.83 6.4 180.33 5.5 181.83 4.6 181.83 2.9L181.83 2.9Q181.83 1.4 180.68 0.58 179.53-0.25 177.33-0.25L177.33-0.25 173.33-0.25Q169.58-0.25 167.68-1.7 165.78-3.15 165.78-5.35L165.78-5.35Q165.78-6.75 166.61-8.05 167.43-9.35 168.88-10.25L168.88-10.25Q166.48-11.5 165.36-13.33 164.23-15.15 164.23-17.7L164.23-17.7Q164.23-20.55 165.63-22.7 167.03-24.85 169.51-26.03 171.98-27.2 175.18-27.2L175.18-27.2Q179.38-27.1 181.96-27.83 184.53-28.55 187.53-30.15L187.53-30.15ZM175.28-22.85Q173.13-22.85 171.91-21.48 170.68-20.1 170.68-17.8L170.68-17.8Q170.68-15.4 171.93-14 173.18-12.6 175.38-12.6L175.38-12.6Q177.68-12.6 178.88-13.98 180.08-15.35 180.08-17.85L180.08-17.85Q180.08-22.85 175.28-22.85L175.28-22.85ZM207.08-27.2Q210.58-27.2 212.58-25.05 214.58-22.9 214.58-19.15L214.58-19.15 214.58 0 208.18 0 208.18-18.15Q208.18-20.5 207.36-21.45 206.53-22.4 204.93-22.4L204.93-22.4Q203.33-22.4 201.98-21.38 200.63-20.35 199.38-18.45L199.38-18.45 199.38 0 192.98 0 192.98-37 199.38-37.65 199.38-23.3Q202.58-27.2 207.08-27.2L207.08-27.2ZM234.93-5.35L237.18-1.25Q235.78-0.25 234.05 0.25 232.33 0.75 230.53 0.75L230.53 0.75Q226.63 0.7 224.6-1.48 222.58-3.65 222.58-7.9L222.58-7.9 222.58-21.85 218.43-21.85 218.43-26.45 222.58-26.45 222.58-32.3 228.98-33.05 228.98-26.45 235.13-26.45 234.48-21.85 228.98-21.85 228.98-8.05Q228.98-6.1 229.65-5.25 230.33-4.4 231.78-4.4L231.78-4.4Q233.23-4.4 234.93-5.35L234.93-5.35ZM266.93-26.45L273.08-26.45 267.33 0 259.33 0 255.33-20.75 251.23 0 243.38 0 237.53-26.45 243.93-26.45 247.63-4.7 252.23-26.45 258.78-26.45 262.98-4.7 266.93-26.45ZM299.17-13.85Q299.17-13.35 299.02-11.25L299.02-11.25 282.42-11.25Q282.72-7.4 284.42-5.75 286.12-4.1 288.92-4.1L288.92-4.1Q290.67-4.1 292.22-4.67 293.77-5.25 295.52-6.45L295.52-6.45 298.17-2.8Q293.77 0.75 288.37 0.75L288.37 0.75Q282.32 0.75 279.05-2.95 275.77-6.65 275.77-13.05L275.77-13.05Q275.77-17.1 277.17-20.33 278.57-23.55 281.22-25.38 283.87-27.2 287.52-27.2L287.52-27.2Q293.07-27.2 296.12-23.68 299.17-20.15 299.17-13.85L299.17-13.85ZM292.82-15.4L292.82-15.7Q292.82-22.65 287.67-22.65L287.67-22.65Q285.32-22.65 284-20.93 282.67-19.2 282.42-15.4L282.42-15.4 292.82-15.4ZM304.92-26.45L311.32-26.45 311.32 0 304.92 0 304.92-26.45ZM308.07-39.85Q309.87-39.85 311-38.73 312.12-37.6 312.12-35.95L312.12-35.95Q312.12-34.3 311-33.2 309.87-32.1 308.07-32.1L308.07-32.1Q306.32-32.1 305.2-33.2 304.07-34.3 304.07-35.95L304.07-35.95Q304.07-37.6 305.2-38.73 306.32-39.85 308.07-39.85L308.07-39.85ZM340.42-30.15L342.02-25.05Q339.47-24.15 334.37-24.15L334.37-24.15Q336.82-23.05 337.99-21.43 339.17-19.8 339.17-17.35L339.17-17.35Q339.17-14.75 337.89-12.75 336.62-10.75 334.19-9.6 331.77-8.45 328.52-8.45L328.52-8.45Q326.72-8.45 325.37-8.85L325.37-8.85Q324.27-8.1 324.27-6.9L324.27-6.9Q324.27-5.05 327.47-5.05L327.47-5.05 331.52-5.05Q334.42-5.05 336.59-4.1 338.77-3.15 339.97-1.43 341.17 0.3 341.17 2.45L341.17 2.45Q341.17 6.45 337.77 8.68 334.37 10.9 327.97 10.9L327.97 10.9Q323.37 10.9 320.74 9.95 318.12 9 317.02 7.2 315.92 5.4 315.92 2.6L315.92 2.6 321.67 2.6Q321.67 4 322.19 4.8 322.72 5.6 324.09 6 325.47 6.4 328.07 6.4L328.07 6.4Q331.72 6.4 333.22 5.5 334.72 4.6 334.72 2.9L334.72 2.9Q334.72 1.4 333.57 0.58 332.42-0.25 330.22-0.25L330.22-0.25 326.22-0.25Q322.47-0.25 320.57-1.7 318.67-3.15 318.67-5.35L318.67-5.35Q318.67-6.75 319.49-8.05 320.32-9.35 321.77-10.25L321.77-10.25Q319.37-11.5 318.24-13.33 317.12-15.15 317.12-17.7L317.12-17.7Q317.12-20.55 318.52-22.7 319.92-24.85 322.39-26.03 324.87-27.2 328.07-27.2L328.07-27.2Q332.27-27.1 334.84-27.83 337.42-28.55 340.42-30.15L340.42-30.15ZM328.17-22.85Q326.02-22.85 324.79-21.48 323.57-20.1 323.57-17.8L323.57-17.8Q323.57-15.4 324.82-14 326.07-12.6 328.27-12.6L328.27-12.6Q330.57-12.6 331.77-13.98 332.97-15.35 332.97-17.85L332.97-17.85Q332.97-22.85 328.17-22.85L328.17-22.85ZM359.97-27.2Q363.47-27.2 365.47-25.05 367.47-22.9 367.47-19.15L367.47-19.15 367.47 0 361.07 0 361.07-18.15Q361.07-20.5 360.24-21.45 359.42-22.4 357.82-22.4L357.82-22.4Q356.22-22.4 354.87-21.38 353.52-20.35 352.27-18.45L352.27-18.45 352.27 0 345.87 0 345.87-37 352.27-37.65 352.27-23.3Q355.47-27.2 359.97-27.2L359.97-27.2ZM387.81-5.35L390.06-1.25Q388.66-0.25 386.94 0.25 385.21 0.75 383.41 0.75L383.41 0.75Q379.51 0.7 377.49-1.48 375.46-3.65 375.46-7.9L375.46-7.9 375.46-21.85 371.31-21.85 371.31-26.45 375.46-26.45 375.46-32.3 381.86-33.05 381.86-26.45 388.01-26.45 387.36-21.85 381.86-21.85 381.86-8.05Q381.86-6.1 382.54-5.25 383.21-4.4 384.66-4.4L384.66-4.4Q386.11-4.4 387.81-5.35L387.81-5.35ZM406.16-26.45L412.56-26.45 412.56 0 406.16 0 406.16-26.45ZM409.31-39.85Q411.11-39.85 412.23-38.73 413.36-37.6 413.36-35.95L413.36-35.95Q413.36-34.3 412.23-33.2 411.11-32.1 409.31-32.1L409.31-32.1Q407.56-32.1 406.43-33.2 405.31-34.3 405.31-35.95L405.31-35.95Q405.31-37.6 406.43-38.73 407.56-39.85 409.31-39.85L409.31-39.85ZM434.36-27.2Q437.91-27.2 439.88-25.08 441.86-22.95 441.86-19.15L441.86-19.15 441.86 0 435.46 0 435.46-18.15Q435.46-20.5 434.63-21.45 433.81-22.4 432.21-22.4L432.21-22.4Q430.56-22.4 429.23-21.38 427.91-20.35 426.66-18.4L426.66-18.4 426.66 0 420.26 0 420.26-26.45 425.81-26.45 426.31-23Q429.56-27.2 434.36-27.2L434.36-27.2ZM481.35-7Q481.35-5.45 481.83-4.73 482.3-4 483.35-3.6L483.35-3.6 482 0.65Q479.75 0.45 478.33-0.45 476.9-1.35 476.15-3.2L476.15-3.2Q474.8-1.2 472.78-0.23 470.75 0.75 468.25 0.75L468.25 0.75Q464.3 0.75 462-1.5 459.7-3.75 459.7-7.4L459.7-7.4Q459.7-11.7 462.83-13.98 465.95-16.25 471.75-16.25L471.75-16.25 475.05-16.25 475.05-17.75Q475.05-20.3 473.88-21.33 472.7-22.35 470.1-22.35L470.1-22.35Q467.2-22.35 463.1-20.95L463.1-20.95 461.6-25.3Q466.55-27.2 471.2-27.2L471.2-27.2Q481.35-27.2 481.35-18.1L481.35-18.1 481.35-7ZM469.95-3.9Q473.2-3.9 475.05-7.15L475.05-7.15 475.05-12.5 472.4-12.5Q466.2-12.5 466.2-7.9L466.2-7.9Q466.2-6 467.15-4.95 468.1-3.9 469.95-3.9L469.95-3.9ZM509.95-27.2Q515.3-27.2 519.35-24.05L519.35-24.05 516.85-20.3Q513.45-22.45 510.2-22.45L510.2-22.45Q508.3-22.45 507.25-21.73 506.2-21 506.2-19.8L506.2-19.8Q506.2-18.9 506.65-18.3 507.1-17.7 508.27-17.18 509.45-16.65 511.75-16L511.75-16Q516.05-14.85 518.12-12.95 520.2-11.05 520.2-7.65L520.2-7.65Q520.2-3.7 517-1.48 513.8 0.75 509.05 0.75L509.05 0.75Q505.8 0.75 503.12-0.25 500.45-1.25 498.5-3L498.5-3 501.7-6.6Q505.15-4 508.9-4L508.9-4Q511.05-4 512.32-4.85 513.6-5.7 513.6-7.2L513.6-7.2Q513.6-8.35 513.12-9.03 512.65-9.7 511.42-10.23 510.2-10.75 507.6-11.5L507.6-11.5Q503.55-12.6 501.65-14.58 499.75-16.55 499.75-19.5L499.75-19.5Q499.75-21.7 501.02-23.45 502.3-25.2 504.62-26.2 506.95-27.2 509.95-27.2L509.95-27.2ZM547.09-13.85Q547.09-13.35 546.94-11.25L546.94-11.25 530.34-11.25Q530.64-7.4 532.34-5.75 534.04-4.1 536.84-4.1L536.84-4.1Q538.59-4.1 540.14-4.67 541.69-5.25 543.44-6.45L543.44-6.45 546.09-2.8Q541.69 0.75 536.29 0.75L536.29 0.75Q530.24 0.75 526.97-2.95 523.69-6.65 523.69-13.05L523.69-13.05Q523.69-17.1 525.09-20.33 526.49-23.55 529.14-25.38 531.79-27.2 535.44-27.2L535.44-27.2Q540.99-27.2 544.04-23.68 547.09-20.15 547.09-13.85L547.09-13.85ZM540.74-15.4L540.74-15.7Q540.74-22.65 535.59-22.65L535.59-22.65Q533.24-22.65 531.92-20.93 530.59-19.2 530.34-15.4L530.34-15.4 540.74-15.4ZM563.49-27.2Q566.09-27.2 568.17-26.45 570.24-25.7 572.09-24.1L572.09-24.1 569.24-20.25Q567.89-21.25 566.64-21.7 565.39-22.15 563.89-22.15L563.89-22.15Q557.94-22.15 557.94-13.1L557.94-13.1Q557.94-8.5 559.49-6.48 561.04-4.45 563.89-4.45L563.89-4.45Q565.29-4.45 566.47-4.9 567.64-5.35 569.24-6.35L569.24-6.35 572.09-2.3Q568.34 0.75 563.54 0.75L563.54 0.75Q559.74 0.75 556.94-0.93 554.14-2.6 552.64-5.7 551.14-8.8 551.14-13L551.14-13Q551.14-17.2 552.64-20.43 554.14-23.65 556.94-25.43 559.74-27.2 563.49-27.2L563.49-27.2ZM597.89-26.45L597.89 0 592.34 0 591.99-3.7Q590.54-1.45 588.56-0.35 586.59 0.75 583.89 0.75L583.89 0.75Q580.34 0.75 578.41-1.43 576.49-3.6 576.49-7.45L576.49-7.45 576.49-26.45 582.89-26.45 582.89-8.25Q582.89-6 583.66-5.05 584.44-4.1 586.14-4.1L586.14-4.1Q589.19-4.1 591.49-7.85L591.49-7.85 591.49-26.45 597.89-26.45ZM618.63-27.15Q620.09-27.15 621.28-26.8L621.28-26.8 620.19-20.6Q618.99-20.9 617.84-20.9L617.84-20.9Q615.49-20.9 614.13-19.23 612.78-17.55 611.99-14.1L611.99-14.1 611.99 0 605.59 0 605.59-26.45 611.13-26.45 611.74-21.25Q612.69-24.1 614.49-25.63 616.28-27.15 618.63-27.15L618.63-27.15ZM646.98-13.85Q646.98-13.35 646.83-11.25L646.83-11.25 630.23-11.25Q630.53-7.4 632.23-5.75 633.93-4.1 636.73-4.1L636.73-4.1Q638.48-4.1 640.03-4.67 641.58-5.25 643.33-6.45L643.33-6.45 645.98-2.8Q641.58 0.75 636.18 0.75L636.18 0.75Q630.13 0.75 626.86-2.95 623.58-6.65 623.58-13.05L623.58-13.05Q623.58-17.1 624.98-20.33 626.38-23.55 629.03-25.38 631.68-27.2 635.33-27.2L635.33-27.2Q640.88-27.2 643.93-23.68 646.98-20.15 646.98-13.85L646.98-13.85ZM640.63-15.4L640.63-15.7Q640.63-22.65 635.48-22.65L635.48-22.65Q633.13-22.65 631.81-20.93 630.48-19.2 630.23-15.4L630.23-15.4 640.63-15.4ZM691.38-26.45L697.53-26.45 691.78 0 683.78 0 679.78-20.75 675.68 0 667.83 0 661.98-26.45 668.38-26.45 672.08-4.7 676.68-26.45 683.23-26.45 687.43-4.7 691.38-26.45ZM721.47-7Q721.47-5.45 721.95-4.73 722.42-4 723.47-3.6L723.47-3.6 722.12 0.65Q719.87 0.45 718.45-0.45 717.02-1.35 716.27-3.2L716.27-3.2Q714.92-1.2 712.9-0.23 710.87 0.75 708.37 0.75L708.37 0.75Q704.42 0.75 702.12-1.5 699.82-3.75 699.82-7.4L699.82-7.4Q699.82-11.7 702.95-13.98 706.07-16.25 711.87-16.25L711.87-16.25 715.17-16.25 715.17-17.75Q715.17-20.3 714-21.33 712.82-22.35 710.22-22.35L710.22-22.35Q707.32-22.35 703.22-20.95L703.22-20.95 701.72-25.3Q706.67-27.2 711.32-27.2L711.32-27.2Q721.47-27.2 721.47-18.1L721.47-18.1 721.47-7ZM710.07-3.9Q713.32-3.9 715.17-7.15L715.17-7.15 715.17-12.5 712.52-12.5Q706.32-12.5 706.32-7.9L706.32-7.9Q706.32-6 707.27-4.95 708.22-3.9 710.07-3.9L710.07-3.9ZM750.62-26.45L742.02 0.1Q740.42 5 737.17 7.73 733.92 10.45 728.27 10.9L728.27 10.9 727.62 6.25Q730.22 5.85 731.8 5.13 733.37 4.4 734.32 3.2 735.27 2 736.07 0L736.07 0 733.87 0 725.47-26.45 732.27-26.45 738.02-4.25 744.02-26.45 750.62-26.45Z" opacity="1" transform="matrix(1,0,0,1,0,0)" fill="#000000" class="undefined-text-1" data-fill-palette-color="secondary" id="text-1"></path></svg></g></svg></g></svg></g></svg></g><g transform="matrix(1,0,0,1,135.30010797103546,0)"><svg viewBox="0 0 124.91978405792906 124.91978405792906" height="124.91978405792906" width="124.91978405792906"><g><svg xmlns="http://www.w3.org/2000/svg" xmlns:xlink="http://www.w3.org/1999/xlink" version="1.1" x="0" y="0" viewBox="41 41 18 18" style="enable-background:new 0 0 100 100;" xml:space="preserve" height="124.91978405792906" width="124.91978405792906" class="icon-icon-0" data-fill-palette-color="accent" id="icon-0"><path d="M50 59c-5 0-9-4-9-9s4-9 9-9 9 4 9 9S55 59 50 59zM50 43c-3.9 0-7 3.1-7 7s3.1 7 7 7 7-3.1 7-7S53.9 43 50 43zM47.7 53.7l-1.4-1.4 4.3-4.3H48v-2h6v6h-2v-2.6L47.7 53.7z" fill="#000000" data-fill-palette-color="accent"></path></svg></g></svg></g><g></g></svg></g><defs></defs></svg><rect width="395.52" height="254.87018161555085" fill="none" stroke="none" visibility="hidden"></rect></g></svg></g></svg>